<?xml version="1.0" standalone="no"?>
<!DOCTYPE svg PUBLIC "-//W3C//DTD SVG 20010904//EN"
 "http://www.w3.org/TR/2001/REC-SVG-20010904/DTD/svg10.dtd">
<svg version="1.0" xmlns="http://www.w3.org/2000/svg"
 width="512.000000pt" height="512.000000pt" viewBox="0 0 512.000000 512.000000"
 preserveAspectRatio="xMidYMid meet">
<metadata>
Created by potrace 1.11, written by Peter Selinger 2001-2013
</metadata>
<g transform="translate(0.000000,512.000000) scale(0.100000,-0.100000)"
fill="#000000" stroke="none">
<path d="M1405 4021 c-110 -60 -276 -156 -370 -214 -110 -68 -172 -101 -176
-94 -4 7 -28 82 -54 167 -26 85 -53 161 -59 167 -9 10 -20 7 -50 -13 l-39 -27
7 -231 c21 -692 26 -972 26 -1471 0 -558 -9 -853 -35 -1139 -12 -125 -12 -162
-2 -175 6 -10 79 -99 160 -199 l149 -182 52 38 c28 20 194 141 369 267 l317
230 0 47 0 47 -135 -47 -134 -47 -65 70 c-72 79 -64 48 -87 320 -16 181 -23
1474 -10 1712 18 319 73 532 163 639 34 41 172 157 232 197 12 7 -29 47 -49
46 -5 0 -100 -49 -210 -108z"/>
<path d="M2177 2864 c-174 -124 -317 -230 -317 -234 0 -5 18 -22 39 -40 l40
-31 100 51 c55 27 106 50 114 50 7 0 38 -26 69 -57 l56 -58 6 -160 c4 -88 11
-234 16 -325 22 -396 8 -937 -29 -1057 -11 -39 -12 -37 105 -145 50 -45 128
-125 174 -176 46 -51 87 -91 91 -90 5 2 130 102 278 222 l270 219 -31 36 c-16
20 -86 95 -154 168 l-124 131 0 560 0 561 53 19 c28 11 112 41 184 67 l133 48
127 -38 c142 -42 347 -120 367 -140 17 -17 26 -231 26 -596 0 -304 -13 -529
-39 -684 l-17 -100 86 -95 c103 -113 234 -268 275 -327 17 -24 35 -41 42 -38
6 2 87 64 180 137 229 182 349 272 471 353 l102 68 0 45 c0 31 -4 43 -12 39
-7 -3 -71 -31 -141 -62 -71 -31 -132 -55 -136 -53 -4 2 -60 58 -124 124 l-117
122 0 318 c0 344 10 593 36 882 14 157 15 186 3 197 -8 7 -93 43 -189 80 -226
86 -344 136 -452 192 -51 26 -93 42 -100 37 -7 -4 -91 -61 -186 -127 -96 -66
-260 -171 -365 -233 l-192 -114 -3 115 -3 115 -52 26 c-41 21 -233 145 -326
212 -15 11 -57 -16 -334 -214z"/>
</g>
</svg>
